<?xml version="1.0" standalone="no"?>
<!DOCTYPE svg PUBLIC "-//W3C//DTD SVG 20010904//EN"
 "http://www.w3.org/TR/2001/REC-SVG-20010904/DTD/svg10.dtd">
<svg version="1.0" xmlns="http://www.w3.org/2000/svg"
 width="769.000000pt" height="771.000000pt" viewBox="0 0 769.000000 771.000000"
 preserveAspectRatio="xMidYMid meet">

<g transform="translate(0.000000,771.000000) scale(0.100000,-0.100000)"
fill="#000000" stroke="none">
<path d="M4185 7704 c-22 -2 -89 -9 -150 -14 -185 -18 -492 -70 -650 -110
-399 -101 -799 -305 -1150 -586 -143 -114 -458 -429 -569 -569 -362 -455 -570
-934 -630 -1455 -21 -179 -21 -599 -1 -774 39 -331 125 -611 283 -921 306
-598 879 -1168 1481 -1474 351 -178 661 -264 1193 -327 175 -21 590 -24 753
-6 418 48 725 134 1060 297 177 86 304 164 475 291 69 52 127 89 128 84 2 -6
-6 -56 -18 -113 -57 -268 -206 -534 -431 -768 -464 -483 -1418 -703 -2507
-579 -533 61 -980 177 -1337 349 -183 88 -290 156 -471 296 -277 215 -462 327
-594 361 -88 22 -292 15 -404 -15 -172 -46 -354 -153 -509 -300 -109 -104
-124 -127 -64 -97 62 31 303 30 430 -2 155 -38 240 -85 431 -234 730 -570
1593 -910 2571 -1014 200 -22 791 -25 995 -6 1110 105 1717 408 2201 1097 359
511 470 1076 323 1637 l-26 97 39 58 c21 32 68 107 103 166 85 142 189 280
286 379 87 89 206 178 238 179 21 0 21 1 1 10 -11 5 -288 67 -615 139 -327 71
-605 132 -618 135 -19 5 -17 0 16 -33 21 -21 46 -55 56 -76 20 -43 36 -140 29
-178 l-5 -25 -82 51 c-129 81 -300 141 -471 166 -106 15 -334 12 -454 -6 -125
-18 -393 -85 -576 -144 -726 -232 -1044 -246 -1331 -57 -151 99 -315 287 -402
462 -203 409 -124 839 217 1182 187 188 392 314 634 392 154 49 260 64 422 58
252 -9 449 -79 578 -208 108 -108 133 -197 82 -285 l-25 -43 62 28 c133 60
686 320 741 348 l58 29 -55 23 c-62 25 -100 63 -174 172 -224 330 -559 550
-965 631 -149 30 -467 32 -622 4 -412 -74 -755 -229 -1071 -484 -472 -380
-724 -906 -701 -1462 18 -443 213 -877 541 -1206 266 -265 548 -411 901 -465
103 -16 383 -16 505 0 218 27 449 86 910 231 256 80 327 98 436 111 126 15
214 1 321 -52 89 -44 200 -124 195 -141 -2 -6 -22 -36 -46 -67 -114 -148 -364
-339 -562 -429 -445 -204 -707 -268 -1135 -279 -359 -9 -745 46 -1034 148
-409 144 -794 419 -1104 789 -363 433 -523 835 -547 1375 -17 394 49 740 204
1065 237 496 759 1009 1252 1231 211 94 373 142 625 183 248 41 357 49 603 43
357 -9 598 -56 927 -184 346 -134 504 -261 577 -464 18 -52 23 -85 23 -176 0
-62 1 -113 3 -113 3 0 933 829 972 867 l25 24 -26 -6 c-39 -10 -200 21 -319
61 -118 39 -361 154 -502 237 -51 30 -165 88 -253 130 -349 163 -692 262
-1085 312 -118 15 -527 28 -615 19z"/>
</g>
</svg>
